<?xml version="1.0" encoding="utf-8"?>
<!-- Generator: Adobe Illustrator 18.1.1, SVG Export Plug-In . SVG Version: 6.00 Build 0)  -->
<svg fill="#7D6D39" version="1.1" id="Layer_1" xmlns="http://www.w3.org/2000/svg" xmlns:xlink="http://www.w3.org/1999/xlink" x="0px" y="0px"
	 viewBox="0 0 1000 1000" enable-background="new 0 0 1000 1000" xml:space="preserve">
<g>
	<path d="M499.7,684.7c-7.1-16.5-12.8-160-37.5-172.7c-5.4-2.8-11.1-5-17-7.7c23.1-19.7,30.4-50.2,53.9-66.2
		c23.7,15.9,30.7,46.6,53.6,65.8c-7.4,3.7-15.4,7.1-22.9,11.5C509.7,527.4,504.6,667.9,499.7,684.7z"/>
	<path d="M456.3,407c-1.8-13.2,1.9-34.1,11.7-45.5c13.1-15.3,24.4-32.1,31.4-56.3c6.9,26.1,20.3,42.9,33.8,59.7
		c6.7,8.3,9.7,40.1,9.7,41.8c-11.3-7.2-28.3-6.5-44.6,9.8C498.3,416.5,473,390.8,456.3,407z"/>
	<path d="M324.8,343.5c-77-24.2-153.7-48.9-227.2-82.6c-8.2-3.8-19.8-14.3-24.7-8.6c-5.7,6.6,5.8,17,9,26.1
		c13.5,37.9,39.9,59.6,80.2,63.9c9.4,1,18.7,2.3,28,3.7c27.7,4.2,36.5,48.5-8.3,46.9c-16.7-0.6-33.5-2.5-50.2-5.4
		c14.1,36.3,42.4,54.4,78.5,46.8c64.5-16,60.7,37.8,35.1,43.5c-9,2-8.9,2.6-18.3,3.9c-2,0.3-4.9,0.5-5,3.8
		c39.8,25.9,56.1,23.2,94.2-4.1c23.4-18.4,44.7,13.2,33.8,31.3c-5.4,8.9-10.9,17.8-16.9,27.7c38.1-2.1,41-4.3,52.4-37.7
		c0.8-2.2,1.5-4.5,2.3-6.7c2.5-7.1,3.5-15.3,7.8-21.1c5.9-7.9,14.9,0.8,22.4-1.1c1.4-0.4,2.8-0.1,4.2-0.2c10.4-1,17.8-6.1,21-16.2
		c3.2-10.3-0.7-18.5-8.7-25c-6.3-5.3-14.1-7.5-22-9.2c-13.3-2.9-30.4-5.4-34.3-18.6C378.2,404.4,366.6,356.7,324.8,343.5z"/>
	<path d="M675.2,343.5c77-24.2,153.7-48.9,227.2-82.6c8.2-3.8,19.8-14.3,24.7-8.6c5.7,6.6-5.8,17-9,26.1
		c-13.5,37.9-39.9,59.6-80.2,63.9c-9.4,1-18.7,2.3-28,3.7c-27.7,4.2-36.5,48.5,8.3,46.9c16.7-0.6,33.5-2.5,50.2-5.4
		c-14.1,36.3-42.4,54.4-78.5,46.8c-64.5-16-60.7,37.8-35.1,43.5c9,2,8.9,2.6,18.3,3.9c2,0.3,4.9,0.5,5,3.8
		c-39.8,25.9-56.1,23.2-94.2-4.1C660.4,463,639,494.6,650,512.7c5.4,8.9,10.9,17.8,16.9,27.7c-38.1-2.1-41-4.3-52.4-37.7
		c-0.8-2.2-1.5-4.5-2.3-6.7c-2.5-7.1-3.5-15.3-7.8-21.1c-5.9-7.9-14.9,0.8-22.4-1.1c-1.4-0.4-2.8-0.1-4.2-0.2
		c-10.4-1-17.8-6.1-21-16.2c-3.2-10.3,0.7-18.5,8.7-25c6.3-5.3,14.1-7.5,22-9.2c13.3-2.9,30.4-5.4,34.3-18.6
		C621.8,404.4,633.4,356.7,675.2,343.5z"/>
	<path d="M498.3,410.8"/>
	<path d="M597.8,727.1l4.4,4.8c9.3,10.1,22.2,16.2,35.9,16.8l0,0c-24.1-26.2-71.1-127-70.5-217.7l-12.3,11.3
		c-5.3,4.9-8.8,11.5-9.8,18.6c0,0-14.7,114.7-17.8,130.9c-3.2,16.3,10.5,18.8,17,25.8c3.8,4.1,6.3,10.8,11.6,16.8
		c3.9,4.4,11.3,9,11.3,9l-0.1-20.9l5,6.6c7.2,9.5,17.2,16.5,28.6,20.1l0,0L597.8,727.1z"/>
	<path d="M399.8,727.1l-4.4,4.8c-9.3,10.1-22.2,16.2-35.9,16.8h0c24.1-26.2,71.1-127,70.5-217.7l12.3,11.3
		c5.3,4.9,8.8,11.5,9.8,18.6c0,0,14.7,114.7,17.8,130.9c3.2,16.3-10.5,18.8-17,25.8c-3.8,4.1-6.3,10.8-11.6,16.8
		c-3.9,4.4-11.3,9-11.3,9l0.1-20.9l-5,6.6c-7.2,9.5-17.2,16.5-28.6,20.1l0,0L399.8,727.1z"/>
</g>
</svg>
